PathFileType	4	(X/Y/Z)	AB10\squats_1.trc
DataRate	CameraRate	NumFrames	NumMarkers	Units	OrigDataRate	OrigDataStartFrame	OrigNumFrames
200.000000	200.000000	4	35	mm	200.000000	128	343
Frame#	Time	C7			LSHO			STRN			LASI			RASI			LPSI			RPSI			LGTR			RGTR			LTHL			LTHR			LKNE			LMKNE			LSHC			LSHL			LSHR			LANK			LMANK			LMT1			LMT5			LCAL			RTHC			RTHL			RTHR			RKNE			RMKNE			RSHC			RSHL			RSHR			RANK			RMANK			RMT1			RMT5			RCAL			LTHC			
		X1	Y1	Z1	X2	Y2	Z2	X3	Y3	Z3	X4	Y4	Z4	X5	Y5	Z5	X6	Y6	Z6	X7	Y7	Z7	X8	Y8	Z8	X9	Y9	Z9	X10	Y10	Z10	X11	Y11	Z11	X12	Y12	Z12	X13	Y13	Z13	X14	Y14	Z14	X15	Y15	Z15	X16	Y16	Z16	X17	Y17	Z17	X18	Y18	Z18	X19	Y19	Z19	X20	Y20	Z20	X21	Y21	Z21	X22	Y22	Z22	X23	Y23	Z23	X24	Y24	Z24	X25	Y25	Z25	X26	Y26	Z26	X27	Y27	Z27	X28	Y28	Z28	X29	Y29	Z29	X30	Y30	Z30	X31	Y31	Z31	X32	Y32	Z32	X33	Y33	Z33	X34	Y34	Z34	X35	Y35	Z35	

129	25.265	-3556.959000348838	1105.049672808095	2488.200754763004	-3579.256785188848	1046.201939982164	2638.868346399058	-3606.632573876535	931.4804181538467	2487.820151484369	-3380.580795453976	664.9883407942526	2610.908447831602	-3388.855622428649	652.5355217525432	2341.536851613319	-3208.346682939168	740.9934092404467	2525.710646584167	-3220.540568515532	744.1286895315384	2433.843985368832	-3312.226071578655	661.4567641648258	2683.200721195724	-3300.667015971879	646.1910429112708	2264.352473652866	-3546.510843845062	598.8816986139109	2652.449753822281	-3470.26871013882	433.9232546157078	2677.19169187485	-3636.051646900008	434.2440022694939	2725.834996846468	-3655.651098124779	419.4624353000023	2595.916449731642	-3537.742740064514	282.0712574530236	2730.735091561912	-3545.385248945649	167.8277795067725	2677.213394644889	-3454.866482016342	212.9732242588468	2657.732872304507	-3428.077047436999	99.02683204465997	2703.583714519945	-3457.970126307606	88.54882975676387	2617.659954830886	-3573.302505865442	62.38191823108431	2676.884547122145	-3516.296357663589	50.36896026032409	2763.850486566302	-3359.026554465625	74.05245332682001	2649.166116134689	-3507.120716467785	404.0053781225473	2328.35870581062	-3426.857650807442	532.727212418934	2252.861085817798	-3555.785377324376	580.4681667040942	2337.489974188589	-3660.694350460361	404.3165493093146	2241.951029886628	-3676.583690500182	392.8861409200535	2364.137740697474	-3554.441932877476	171.4102131560809	2309.401032215776	-3477.215901785259	245.0583337690806	2291.619780991736	-3556.822842927395	277.2769302062547	2236.764888786857	-3424.357775064189	109.0693567671558	2267.282513774092	-3452.800039716165	100.6216024261991	2351.501201387968	-3570.19884721316	59.91276526990028	2290.637593905482	-3517.148775594587	50.89158700186948	2207.917114746734	-3353.513314620262	79.19696656185255	2321.000163001158	-3422.215663621829	564.6742693771383	2717.658291043838	
130	25.27	-3557.29037103165	1102.33736392727	2488.074599350183	-3579.628732201648	1043.369897911963	2638.734519055028	-3606.823684237713	928.5695368235312	2487.68975808705	-3380.3610968245	662.9871193031676	2610.832820413132	-3388.578075629836	650.3772544976467	2341.51178273559	-3208.080271404831	738.8588216133367	2525.623189990332	-3220.289902228126	741.9490309896034	2433.795528849275	-3311.83563830181	659.6045059377107	2683.097420476689	-3300.327264743506	644.2678641425665	2264.30782023206	-3546.027917692348	598.0715579224828	2652.303374862865	-3470.428624871634	432.7680878366339	2677.172250637936	-3636.24944319324	433.8964649402379	2725.820886175971	-3655.884088960644	419.129342973208	2595.822043101872	-3537.911843123699	281.9237675964893	2730.655266444489	-3545.471824816234	167.7262093460045	2677.134977389381	-3454.980845661842	212.901005054732	2657.666054312288	-3428.090765375953	99.00730101652574	2703.489619521428	-3457.995235802403	88.47883711686201	2617.593457971355	-3573.313084125784	62.39220369337716	2676.867119763519	-3516.28538325692	50.37789151778014	2763.82661136194	-3359.048775492338	74.04697150666705	2649.106545305952	-3507.369205612202	402.8735952250783	2328.364304543372	-3426.66682131868	531.2427345146148	2252.910676819478	-3555.336241517409	579.5061629548595	2337.685552409458	-3661.031601304941	403.932111769508	2242.042829179328	-3676.867045903657	392.5642830296691	2364.256400133117	-3554.541741956427	171.2476731873683	2309.526271721973	-3477.412368098907	244.9605881891605	2291.649628846191	-3557.091061444983	277.0528246363844	2236.837635091336	-3424.395047161045	109.0592173086372	2267.347309456659	-3452.867169294731	100.5431903123814	2351.57320835672	-3570.215674488304	59.86608493241125	2290.671970540374	-3517.168941617118	50.91664970164708	2207.955085007487	-3353.541143122784	79.22234163203105	2321.030722695882	-3421.912572972052	563.3058121944309	2717.596483870427	
131	25.275	-3557.610902579324	1099.691663240192	2487.946749849458	-3579.995358374144	1040.615544916192	2638.59964488649	-3607.013061642825	925.7316519614718	2487.565292659079	-3380.155194706833	661.0456359319277	2610.752519285563	-3388.304959887843	648.2655291771738	2341.491796763149	-3207.819536654953	736.7758374099392	2525.534360758237	-3220.044814222718	739.8148603297338	2433.747601159602	-3311.455123922888	657.8064410892964	2682.994207725239	-3299.997915145134	642.3820156208358	2264.271962235001	-3545.546479814033	597.2732738179011	2652.136775137782	-3470.580015808297	431.6497706130548	2677.143094930914	-3636.440449250258	433.5619779080864	2725.787501883925	-3656.102212592371	418.8060638829301	2595.707760833077	-3538.075679594437	281.7839898540628	2730.565250628708	-3545.553143485284	167.6305936708761	2677.051801173762	-3455.088388724616	212.8298051906079	2657.597003723963	-3428.101132616293	98.99059464848311	2703.399373926493	-3458.019145791612	88.40724138221236	2617.524028199181	-3573.322017691466	62.40032876461022	2676.84843180102	-3516.275669911915	50.38591535469459	2763.801551811301	-3359.069088779888	74.04080520745659	2649.047798053555	-3507.615401461364	401.768908958197	2328.38433580166	-3426.483764746385	529.7877586113973	2252.967143037229	-3554.895996064571	578.5626872594269	2337.887952606637	-3661.360808033083	403.5558227143374	2242.149212728804	-3677.14182506237	392.2498866988582	2364.389070558552	-3554.637171413152	171.0893300580704	2309.658957089272	-3477.603747235296	244.8653561174184	2291.684245066075	-3557.35756366639	276.8356366222752	2236.915440753135	-3424.430792619166	109.0486119475028	2267.412205713182	-3452.928711930913	100.4619310989843	2351.64973519966	-3570.230446110583	59.8207577291487	2290.708878830562	-3517.18914933943	50.94166170451428	2207.995758033268	-3353.566816985285	79.24687496166706	2321.062640347346	-3421.619316598333	561.9845367436849	2717.531856298654	
132	25.28	-3557.919465852307	1097.11341227009	2487.817013485079	-3580.35631840186	1037.942476241988	2638.463611743412	-3607.199711876211	922.9688499692954	2487.446914822652	-3379.963173740994	659.1636423656715	2610.667448695828	-3388.036406436916	646.20149657729	2341.476809059772	-3207.564869144333	734.7439530248075	2525.444021625215	-3219.805502383948	737.7262892716464	2433.699959142471	-3311.085777816623	656.0622675687709	2682.890974468379	-3299.679406461241	640.5333622391037	2264.243572987692	-3545.068451809362	596.4870862110778	2651.949998244176	-3470.724265081241	430.5678709320202	2677.10623767293	-3636.626160560651	433.2402678920852	2725.735843302535	-3656.307015751313	418.4917891064525	2595.574718832648	-3538.235025836109	281.6520208613128	2730.465796820906	-3545.629720849025	167.5402176089589	2676.964642484107	-3455.189713146329	212.7598652013012	2657.526193202349	-3428.108365082817	98.97670075449345	2703.313590633008	-3458.042065656686	88.33423744167692	2617.452203295232	-3573.329157657914	62.40603163203568	2676.828932495822	-3516.267289585444	50.39303817463595	2763.775608942006	-3359.087615942002	74.03403520730363	2648.990160613767	-3507.860147606397	400.6915664636016	2328.418230766646	-3426.308960815357	528.3618236675896	2253.029697073598	-3554.465215390981	577.6378450564628	2338.0958683992	-3661.682568653294	403.1877925781515	2242.269028173389	-3677.408383148009	391.9428027315022	2364.535089443944	-3554.728560327888	170.9350882327697	2309.798587385906	-3477.790079033045	244.7722163003745	2291.724359036048	-3557.622197221433	276.625910570622	2236.998423968451	-3424.465422965886	109.0375587647445	2267.477397860303	-3452.984092903247	100.3767855300462	2351.731129484957	-3570.243375446033	59.77700845378979	2290.748138609896	-3517.209275971631	50.96642441190627	2208.039114596906	-3353.590623890072	79.27002454589621	2321.096247030418	-3421.337042666559	560.7104908093366	2717.465023693425	
